<svg width="30" height="30" viewBox="0 0 30 30" fill="none" xmlns="http://www.w3.org/2000/svg">
<path d="M23.5345 13.4245C21.4351 10.6782 18.213 12.3059 18.213 12.3059C19.1146 11.154 19.7156 10.2191 19.6029 8.34509C19.6029 8.28248 19.6029 8.2157 19.6029 8.1531C19.6029 5.14386 17.5703 2.72729 15.0619 2.72729C12.5535 2.72729 10.5209 5.14386 10.5209 8.1531C10.5209 8.52385 10.553 8.89392 10.6169 9.25912C10.7213 10.5655 11.2597 11.346 12.0026 12.3059C12.0026 12.3059 8.7805 10.6782 6.69365 13.4245C4.60681 16.1708 5.64188 19.4304 6.3055 20.5197C6.96912 21.6091 7.94576 23.3662 10.2747 23.1575C12.3365 22.9739 12.6412 22.5523 14.0602 21.1917C13.9554 23.4344 13.2443 25.6068 12.0026 27.4773H18.213C17.0736 26.0374 16.0594 22.736 16.193 21.2168C17.5786 22.544 17.8958 22.9614 19.9493 23.145C22.2782 23.3495 23.2674 21.5548 23.931 20.4822C24.5946 19.4095 25.6297 16.1708 23.5345 13.4245Z" fill="#650403"/>
<circle cx="15" cy="15" r="14.5" stroke="#650403"/>
</svg>
